<svg width="38" height="45" viewBox="0 0 38 45" fill="none" xmlns="http://www.w3.org/2000/svg">
<path d="M28.5 16.5789C28.5 29.2026 9.5 29.2026 9.5 16.5789H14.25C14.25 22.9026 23.75 22.9026 23.75 16.5789M38 37.8947V45H0V37.8947C0 31.5711 12.6587 28.4211 19 28.4211C25.3413 28.4211 38 31.5711 38 37.8947ZM33.4875 37.8947C33.4875 36.3789 26.0538 32.9211 19 32.9211C11.9462 32.9211 4.5125 36.3789 4.5125 37.8947V40.5H33.4875M20.1875 0C20.8525 0 21.375 0.521053 21.375 1.18421V8.28947H23.75V2.36842C25.4308 3.14413 26.839 4.40572 27.7919 5.98947C28.7448 7.57321 29.1984 9.406 29.0938 11.25C29.0938 11.25 30.7562 11.5816 30.875 14.2105H7.125C7.125 11.5816 8.90625 11.25 8.90625 11.25C8.80164 9.406 9.2552 7.57321 10.2081 5.98947C11.161 4.40572 12.5692 3.14413 14.25 2.36842V8.28947H16.625V1.18421C16.625 0.521053 17.1475 0 17.8125 0" fill="#41598b"/>
</svg>
