<svg width="26" height="27" viewBox="0 0 26 27" fill="none" xmlns="http://www.w3.org/2000/svg">
<path d="M24.4313 12.125L21.375 4.625H23.25V2.75H13.875V0.875H12V2.75H2.625V4.625H4.5L1.4625 12.125H0.75V14H1.03125C1.32375 14.9337 1.91812 15.7437 2.71875 16.3062C3.50934 16.8795 4.46092 17.1883 5.4375 17.1883C6.41408 17.1883 7.36566 16.8795 8.15625 16.3062C8.95755 15.7403 9.55572 14.9318 9.8625 14H10.125V12.125H9.28125L6.15 4.625H12V19.625H8.25L7.51875 19.9625L3.76875 24.6687L4.5 26.1875H21.375L22.1063 24.6687L18.3563 19.9625L17.625 19.625H13.875V4.625H19.7438L16.6125 12.125H15.75V14H16.0312C16.3379 14.929 16.9297 15.7375 17.7225 16.3107C18.5153 16.8838 19.4686 17.1923 20.4469 17.1923C21.4251 17.1923 22.3785 16.8838 23.1712 16.3107C23.964 15.7375 24.5558 14.929 24.8625 14H25.125V12.125H24.4313ZM6.7875 14.9563C6.374 15.1851 5.91008 15.3075 5.4375 15.3125C4.97052 15.3101 4.51204 15.1874 4.10625 14.9563C3.69246 14.7294 3.34383 14.4002 3.09375 14H7.78125C7.53328 14.3953 7.19204 14.7237 6.7875 14.9563ZM7.25625 12.125H3.50625L5.38125 7.625L7.25625 12.125ZM17.175 21.5L19.5 24.3125H6.375L8.7 21.5H17.175ZM20.5125 7.6625L22.3875 12.1625H18.6375L20.5125 7.6625ZM21.7875 14.9937C21.3776 15.2313 20.9113 15.3544 20.4375 15.35C19.9693 15.3567 19.5085 15.2333 19.1062 14.9937C18.6918 14.7512 18.344 14.4098 18.0938 14H22.7812C22.5488 14.4172 22.2047 14.7613 21.7875 14.9937Z" fill="#41598B"/>
</svg>
