<svg width="27" height="24" viewBox="0 0 27 24" fill="none" xmlns="http://www.w3.org/2000/svg">
<path d="M23.375 6.375C23.375 6.375 25.25 8.25 25.25 11.375C25.25 14.5 23.375 16.375 23.375 16.375" stroke="#41598B" stroke-width="1.875" stroke-linecap="round" stroke-linejoin="round"/>
<path d="M1.5 14.3212V9.67871C1.5 9.01566 1.76339 8.37978 2.23223 7.91094C2.70107 7.4421 3.33696 7.17871 4 7.17871H7.625C7.8694 7.17864 8.10842 7.10694 8.3125 6.97246L15.8125 2.02746C16.0009 1.90336 16.2195 1.83258 16.4449 1.82263C16.6703 1.81268 16.8942 1.86393 17.0928 1.97094C17.2915 2.07795 17.4575 2.23673 17.5732 2.43044C17.6889 2.62415 17.75 2.84557 17.75 3.07121V20.9287C17.75 21.1543 17.6889 21.3758 17.5732 21.5695C17.4575 21.7632 17.2915 21.922 17.0928 22.029C16.8942 22.136 16.6703 22.1872 16.4449 22.1773C16.2195 22.1673 16.0009 22.0966 15.8125 21.9725L8.3125 17.0275C8.10842 16.893 7.8694 16.8213 7.625 16.8212H4C3.33696 16.8212 2.70107 16.5578 2.23223 16.089C1.76339 15.6201 1.5 14.9842 1.5 14.3212Z" stroke="#41598B" stroke-width="1.875"/>
</svg>
