<svg width="44" height="47" viewBox="0 0 44 47" fill="none" xmlns="http://www.w3.org/2000/svg">
<path d="M22.0014 12.4419V0H12.3758C11.2817 0 10.2324 0.436948 9.45878 1.21472C8.68514 1.99249 8.25052 3.04738 8.25052 4.14731V19.8241C9.8069 20.378 11.1624 21.3882 12.1419 22.7243C13.1214 24.0605 13.6799 25.6612 13.7454 27.3197L17.7084 23.3328C18.4822 22.5547 19.5319 22.1177 20.6263 22.1177C21.7207 22.1177 22.7703 22.5547 23.5442 23.3328C24.3181 24.1108 24.7529 25.166 24.7529 26.2663C24.7529 27.3666 24.3181 28.4218 23.5442 29.1998L19.5785 33.184C21.2277 33.2503 22.8193 33.8121 24.1478 34.7968C25.4763 35.7815 26.4807 37.1439 27.0314 38.7082H34.3771C35.4712 38.7082 36.5205 38.2713 37.2941 37.4935C38.0678 36.7157 38.5024 35.6609 38.5024 34.5609V16.5892H26.1266C25.0325 16.5892 23.9833 16.1523 23.2096 15.3745C22.436 14.5968 22.0014 13.5419 22.0014 12.4419ZM11.0007 27.6487C11.0007 29.1153 10.4212 30.5218 9.38967 31.5589C8.35816 32.5959 6.95913 33.1785 5.50034 33.1785C4.04156 33.1785 2.64253 32.5959 1.61101 31.5589C0.579499 30.5218 0 29.1153 0 27.6487C0 26.1822 0.579499 24.7756 1.61101 23.7386C2.64253 22.7016 4.04156 22.119 5.50034 22.119C6.95913 22.119 8.35816 22.7016 9.38967 23.7386C10.4212 24.7756 11.0007 26.1822 11.0007 27.6487ZM8.25052 27.6487C8.25052 26.9154 7.96077 26.2122 7.44501 25.6937C6.92925 25.1752 6.22973 24.8839 5.50034 24.8839C4.77095 24.8839 4.07144 25.1752 3.55568 25.6937C3.03992 26.2122 2.75017 26.9154 2.75017 27.6487C2.75017 28.382 3.03992 29.0853 3.55568 29.6038C4.07144 30.1223 4.77095 30.4136 5.50034 30.4136C6.22973 30.4136 6.92925 30.1223 7.44501 29.6038C7.96077 29.0853 8.25052 28.382 8.25052 27.6487ZM5.09882 43.8343C4.84061 44.0939 4.49041 44.2397 4.12526 44.2397C3.7601 44.2397 3.4099 44.0939 3.1517 43.8343C2.89349 43.5747 2.74844 43.2226 2.74844 42.8555C2.74844 42.4884 2.89349 42.1364 3.1517 41.8768L19.6527 25.2875C19.9109 25.028 20.2611 24.8821 20.6263 24.8821C20.9914 24.8821 21.3416 25.028 21.5998 25.2875C21.8581 25.5471 22.0031 25.8992 22.0031 26.2663C22.0031 26.6334 21.8581 26.9855 21.5998 27.2451L5.09882 43.8343ZM33.1671 44.238H27.0287C27.3312 43.3726 27.499 42.4408 27.499 41.4731H32.9993C35.1875 41.4731 37.286 40.5992 38.8333 39.0437C40.3806 37.4881 41.2498 35.3784 41.2498 33.1785V16.5892C41.9792 16.5892 42.6787 16.8805 43.1945 17.3991C43.7102 17.9176 44 18.6208 44 19.3541V33.3444C44 36.2331 42.8588 39.0035 40.8273 41.0463C38.7958 43.0892 36.0404 44.2372 33.1671 44.238ZM19.2512 35.9434C19.9878 35.9196 20.7216 36.0448 21.4091 36.3117C22.0966 36.5786 22.7237 36.9816 23.2532 37.4969C23.7828 38.0122 24.2039 38.6292 24.4916 39.3112C24.7794 39.9933 24.9278 40.7266 24.9282 41.4675C24.9286 42.2084 24.7808 42.9418 24.4938 43.6242C24.2067 44.3065 23.7862 44.924 23.2572 45.4398C22.7282 45.9556 22.1014 46.3593 21.4142 46.6268C20.727 46.8944 19.9933 47.0204 19.2567 46.9973C17.8287 46.9526 16.4741 46.3511 15.4794 45.3201C14.4848 44.289 13.9282 42.9093 13.9275 41.473C13.9268 40.0367 14.482 38.6565 15.4756 37.6244C16.4692 36.5924 17.8233 35.9895 19.2512 35.9434ZM16.501 41.4731C16.501 42.2064 16.7908 42.9097 17.3065 43.4282C17.8223 43.9467 18.5218 44.238 19.2512 44.238C19.9806 44.238 20.6801 43.9467 21.1959 43.4282C21.7116 42.9097 22.0014 42.2064 22.0014 41.4731C22.0014 40.7398 21.7116 40.0366 21.1959 39.518C20.6801 38.9995 19.9806 38.7082 19.2512 38.7082C18.5218 38.7082 17.8223 38.9995 17.3065 39.518C16.7908 40.0366 16.501 40.7398 16.501 41.4731ZM24.7515 12.4419V0.691218L37.8149 13.8244H26.1266C25.7619 13.8244 25.4122 13.6787 25.1543 13.4195C24.8964 13.1602 24.7515 12.8086 24.7515 12.4419Z" fill="#41598B"/>
</svg>
